<svg width="23" height="47" viewBox="0 0 23 47" fill="none" xmlns="http://www.w3.org/2000/svg">
<path d="M11.2671 15C5.05431 15 0 20.1337 0 26.4437V35.5566C0 41.8666 5.05431 47 11.2671 47C17.4796 47 22.5342 41.8821 22.5342 35.5916V26.4437C22.5342 20.1337 17.4796 15 11.2671 15ZM20.415 35.5916C20.415 40.7138 16.3115 44.8808 11.2671 44.8808C6.22306 44.8808 2.11925 40.6979 2.11925 35.5563V26.4437C2.11925 21.3021 6.22306 17.1192 11.2671 17.1192C16.3116 17.1192 20.415 21.3021 20.415 26.4437V35.5916Z" fill="#C08D5D"/>
<path d="M11.2668 23.7594C10.6815 23.7594 10.2072 24.2338 10.2072 24.8191V28.5277C10.2072 29.1129 10.6815 29.5873 11.2668 29.5873C11.852 29.5873 12.3264 29.1129 12.3264 28.5277V24.8191C12.3264 24.2338 11.852 23.7594 11.2668 23.7594Z" fill="#C08D5D"/>
<circle cx="11.5" cy="7.5" r="1.5" fill="#C08D5D"/>
<circle cx="11.5" cy="1.5" r="1.5" fill="#C08D5D" fill-opacity="0.31"/>
</svg>
