<svg width="23" height="32" viewBox="0 0 23 32" fill="none" xmlns="http://www.w3.org/2000/svg">
<path d="M11.2671 0C5.05431 0 0 5.13375 0 11.4437V20.5566C0 26.8666 5.05431 32 11.2671 32C17.4796 32 22.5342 26.8821 22.5342 20.5916V11.4437C22.5342 5.13375 17.4796 0 11.2671 0ZM20.415 20.5916C20.415 25.7138 16.3115 29.8808 11.2671 29.8808C6.22306 29.8808 2.11925 25.6979 2.11925 20.5563V11.4437C2.11925 6.30212 6.22306 2.11919 11.2671 2.11919C16.3116 2.11919 20.415 6.30212 20.415 11.4437V20.5916Z" fill="#C08D5D"/>
<path d="M11.2668 8.75945C10.6815 8.75945 10.2072 9.23382 10.2072 9.81907V13.5277C10.2072 14.1129 10.6815 14.5873 11.2668 14.5873C11.852 14.5873 12.3264 14.1129 12.3264 13.5277V9.81907C12.3264 9.23382 11.852 8.75945 11.2668 8.75945Z" fill="#C08D5D"/>
</svg>
